<svg id="visual" viewBox="0 0 900 600" width="900" height="600" xmlns="http://www.w3.org/2000/svg" xmlns:xlink="http://www.w3.org/1999/xlink" version="1.1"><g><g transform="translate(824 301)"><path d="M0 -13.1L13.1 0L0 13.1L-13.1 0Z" fill="#d3d3d3"></path></g><g transform="translate(659 516)"><path d="M0 -11L11 0L0 11L-11 0Z" fill="#d3d3d3"></path></g><g transform="translate(542 398)"><path d="M0 -12L12 0L0 12L-12 0Z" fill="#d3d3d3"></path></g><g transform="translate(874 367)"><path d="M0 -11L11 0L0 11L-11 0Z" fill="#d3d3d3"></path></g><g transform="translate(135 371)"><path d="M0 -11L11 0L0 11L-11 0Z" fill="#d3d3d3"></path></g><g transform="translate(820 141)"><path d="M0 -10L10 0L0 10L-10 0Z" fill="#d3d3d3"></path></g><g transform="translate(707 55)"><path d="M0 -12L12 0L0 12L-12 0Z" fill="#d3d3d3"></path></g><g transform="translate(659 233)"><path d="M0 -9L9 0L0 9L-9 0Z" fill="#d3d3d3"></path></g><g transform="translate(236 95)"><path d="M0 -9L9 0L0 9L-9 0Z" fill="#d3d3d3"></path></g><g transform="translate(238 521)"><path d="M0 -11L11 0L0 11L-11 0Z" fill="#d3d3d3"></path></g><g transform="translate(614 393)"><path d="M0 -9L9 0L0 9L-9 0Z" fill="#d3d3d3"></path></g><g transform="translate(62 413)"><path d="M0 -10L10 0L0 10L-10 0Z" fill="#d3d3d3"></path></g><g transform="translate(717 12)"><path d="M0 -10L10 0L0 10L-10 0Z" fill="#d3d3d3"></path></g><g transform="translate(426 436)"><path d="M0 -10L10 0L0 10L-10 0Z" fill="#d3d3d3"></path></g><g transform="translate(818 177)"><path d="M0 -11L11 0L0 11L-11 0Z" fill="#d3d3d3"></path></g><g transform="translate(75 457)"><path d="M0 -12L12 0L0 12L-12 0Z" fill="#d3d3d3"></path></g><g transform="translate(245 361)"><path d="M0 -12L12 0L0 12L-12 0Z" fill="#d3d3d3"></path></g><g transform="translate(81 265)"><path d="M0 -9L9 0L0 9L-9 0Z" fill="#d3d3d3"></path></g><g transform="translate(504 411)"><path d="M0 -10L10 0L0 10L-10 0Z" fill="#d3d3d3"></path></g><g transform="translate(386 352)"><path d="M0 -11L11 0L0 11L-11 0Z" fill="#d3d3d3"></path></g><g transform="translate(359 560)"><path d="M0 -9L9 0L0 9L-9 0Z" fill="#d3d3d3"></path></g><g transform="translate(667 349)"><path d="M0 -9L9 0L0 9L-9 0Z" fill="#d3d3d3"></path></g><g transform="translate(176 502)"><path d="M0 -10L10 0L0 10L-10 0Z" fill="#d3d3d3"></path></g><g transform="translate(12 510)"><path d="M0 -12L12 0L0 12L-12 0Z" fill="#d3d3d3"></path></g><g transform="translate(590 529)"><path d="M0 -9L9 0L0 9L-9 0Z" fill="#d3d3d3"></path></g><g transform="translate(393 463)"><path d="M0 -11L11 0L0 11L-11 0Z" fill="#d3d3d3"></path></g><g transform="translate(257 113)"><path d="M0 -12L12 0L0 12L-12 0Z" fill="#d3d3d3"></path></g><g transform="translate(401 233)"><path d="M0 -9L9 0L0 9L-9 0Z" fill="#d3d3d3"></path></g><g transform="translate(739 201)"><path d="M0 -12L12 0L0 12L-12 0Z" fill="#d3d3d3"></path></g><g transform="translate(462 516)"><path d="M0 -9L9 0L0 9L-9 0Z" fill="#d3d3d3"></path></g><g transform="translate(162 91)"><path d="M0 -11L11 0L0 11L-11 0Z" fill="#d3d3d3"></path></g><g transform="translate(570 120)"><path d="M0 -9L9 0L0 9L-9 0Z" fill="#d3d3d3"></path></g><g transform="translate(617 304)"><path d="M0 -9L9 0L0 9L-9 0Z" fill="#d3d3d3"></path></g><g transform="translate(26 302)"><path d="M0 -12L12 0L0 12L-12 0Z" fill="#d3d3d3"></path></g><g transform="translate(710 161)"><path d="M0 -12L12 0L0 12L-12 0Z" fill="#d3d3d3"></path></g><g transform="translate(656 127)"><path d="M0 -11L11 0L0 11L-11 0Z" fill="#d3d3d3"></path></g><g transform="translate(466 142)"><path d="M0 -10L10 0L0 10L-10 0Z" fill="#d3d3d3"></path></g><g transform="translate(233 207)"><path d="M0 -12L12 0L0 12L-12 0Z" fill="#d3d3d3"></path></g><g transform="translate(225 459)"><path d="M0 -12L12 0L0 12L-12 0Z" fill="#d3d3d3"></path></g><g transform="translate(579 361)"><path d="M0 -10L10 0L0 10L-10 0Z" fill="#d3d3d3"></path></g><g transform="translate(342 422)"><path d="M0 -11L11 0L0 11L-11 0Z" fill="#d3d3d3"></path></g><g transform="translate(879 397)"><path d="M0 -9L9 0L0 9L-9 0Z" fill="#d3d3d3"></path></g><g transform="translate(174 117)"><path d="M0 -9L9 0L0 9L-9 0Z" fill="#d3d3d3"></path></g><g transform="translate(471 7)"><path d="M0 -9L9 0L0 9L-9 0Z" fill="#d3d3d3"></path></g><g transform="translate(719 97)"><path d="M0 -10L10 0L0 10L-10 0Z" fill="#d3d3d3"></path></g><g transform="translate(154 247)"><path d="M0 -9L9 0L0 9L-9 0Z" fill="#d3d3d3"></path></g><g transform="translate(169 327)"><path d="M0 -10L10 0L0 10L-10 0Z" fill="#d3d3d3"></path></g><g transform="translate(593 452)"><path d="M0 -11L11 0L0 11L-11 0Z" fill="#d3d3d3"></path></g><g transform="translate(116 405)"><path d="M0 -10L10 0L0 10L-10 0Z" fill="#d3d3d3"></path></g><g transform="translate(97 120)"><path d="M0 -12L12 0L0 12L-12 0Z" fill="#d3d3d3"></path></g><g transform="translate(128 561)"><path d="M0 -12L12 0L0 12L-12 0Z" fill="#d3d3d3"></path></g><g transform="translate(279 293)"><path d="M0 -9L9 0L0 9L-9 0Z" fill="#d3d3d3"></path></g><g transform="translate(823 502)"><path d="M0 -12L12 0L0 12L-12 0Z" fill="#d3d3d3"></path></g><g transform="translate(618 29)"><path d="M0 -12L12 0L0 12L-12 0Z" fill="#d3d3d3"></path></g><g transform="translate(507 564)"><path d="M0 -12L12 0L0 12L-12 0Z" fill="#d3d3d3"></path></g><g transform="translate(799 597)"><path d="M0 -10L10 0L0 10L-10 0Z" fill="#d3d3d3"></path></g><g transform="translate(28 224)"><path d="M0 -12L12 0L0 12L-12 0Z" fill="#d3d3d3"></path></g><g transform="translate(510 152)"><path d="M0 -10L10 0L0 10L-10 0Z" fill="#d3d3d3"></path></g><g transform="translate(641 373)"><path d="M0 -10L10 0L0 10L-10 0Z" fill="#d3d3d3"></path></g><g transform="translate(221 554)"><path d="M0 -12L12 0L0 12L-12 0Z" fill="#d3d3d3"></path></g><g transform="translate(884 190)"><path d="M0 -11L11 0L0 11L-11 0Z" fill="#d3d3d3"></path></g><g transform="translate(314 277)"><path d="M0 -12L12 0L0 12L-12 0Z" fill="#d3d3d3"></path></g><g transform="translate(747 21)"><path d="M0 -11L11 0L0 11L-11 0Z" fill="#d3d3d3"></path></g><g transform="translate(365 169)"><path d="M0 -12L12 0L0 12L-12 0Z" fill="#d3d3d3"></path></g><g transform="translate(609 597)"><path d="M0 -10L10 0L0 10L-10 0Z" fill="#d3d3d3"></path></g><g transform="translate(481 50)"><path d="M0 -10L10 0L0 10L-10 0Z" fill="#d3d3d3"></path></g><g transform="translate(886 120)"><path d="M0 -9L9 0L0 9L-9 0Z" fill="#d3d3d3"></path></g><g transform="translate(634 268)"><path d="M0 -11L11 0L0 11L-11 0Z" fill="#d3d3d3"></path></g><g transform="translate(162 543)"><path d="M0 -12L12 0L0 12L-12 0Z" fill="#d3d3d3"></path></g><g transform="translate(153 397)"><path d="M0 -9L9 0L0 9L-9 0Z" fill="#d3d3d3"></path></g><g transform="translate(396 317)"><path d="M0 -9L9 0L0 9L-9 0Z" fill="#d3d3d3"></path></g><g transform="translate(732 524)"><path d="M0 -12L12 0L0 12L-12 0Z" fill="#d3d3d3"></path></g><g transform="translate(758 125)"><path d="M0 -10L10 0L0 10L-10 0Z" fill="#d3d3d3"></path></g><g transform="translate(167 570)"><path d="M0 -10L10 0L0 10L-10 0Z" fill="#d3d3d3"></path></g><g transform="translate(62 554)"><path d="M0 -10L10 0L0 10L-10 0Z" fill="#d3d3d3"></path></g><g transform="translate(836 373)"><path d="M0 -11L11 0L0 11L-11 0Z" fill="#d3d3d3"></path></g><g transform="translate(636 63)"><path d="M0 -10L10 0L0 10L-10 0Z" fill="#d3d3d3"></path></g><g transform="translate(853 341)"><path d="M0 -12L12 0L0 12L-12 0Z" fill="#d3d3d3"></path></g><g transform="translate(812 424)"><path d="M0 -10L10 0L0 10L-10 0Z" fill="#d3d3d3"></path></g><g transform="translate(560 176)"><path d="M0 -10L10 0L0 10L-10 0Z" fill="#d3d3d3"></path></g><g transform="translate(256 7)"><path d="M0 -12L12 0L0 12L-12 0Z" fill="#d3d3d3"></path></g><g transform="translate(496 210)"><path d="M0 -11L11 0L0 11L-11 0Z" fill="#d3d3d3"></path></g><g transform="translate(774 579)"><path d="M0 -10L10 0L0 10L-10 0Z" fill="#d3d3d3"></path></g><g transform="translate(828 23)"><path d="M0 -9L9 0L0 9L-9 0Z" fill="#d3d3d3"></path></g><g transform="translate(748 284)"><path d="M0 -11L11 0L0 11L-11 0Z" fill="#d3d3d3"></path></g><g transform="translate(536 511)"><path d="M0 -11L11 0L0 11L-11 0Z" fill="#d3d3d3"></path></g><g transform="translate(25 581)"><path d="M0 -12L12 0L0 12L-12 0Z" fill="#d3d3d3"></path></g><g transform="translate(828 454)"><path d="M0 -10L10 0L0 10L-10 0Z" fill="#d3d3d3"></path></g><g transform="translate(842 89)"><path d="M0 -9L9 0L0 9L-9 0Z" fill="#d3d3d3"></path></g><g transform="translate(432 40)"><path d="M0 -11L11 0L0 11L-11 0Z" fill="#d3d3d3"></path></g><g transform="translate(626 551)"><path d="M0 -12L12 0L0 12L-12 0Z" fill="#d3d3d3"></path></g><g transform="translate(584 284)"><path d="M0 -11L11 0L0 11L-11 0Z" fill="#d3d3d3"></path></g><g transform="translate(359 450)"><path d="M0 -11L11 0L0 11L-11 0Z" fill="#d3d3d3"></path></g><g transform="translate(178 55)"><path d="M0 -12L12 0L0 12L-12 0Z" fill="#d3d3d3"></path></g><g transform="translate(564 557)"><path d="M0 -10L10 0L0 10L-10 0Z" fill="#d3d3d3"></path></g><g transform="translate(126 281)"><path d="M0 -12L12 0L0 12L-12 0Z" fill="#d3d3d3"></path></g><g transform="translate(676 432)"><path d="M0 -12L12 0L0 12L-12 0Z" fill="#d3d3d3"></path></g><g transform="translate(113 30)"><path d="M0 -9L9 0L0 9L-9 0Z" fill="#d3d3d3"></path></g><g transform="translate(598 502)"><path d="M0 -10L10 0L0 10L-10 0Z" fill="#d3d3d3"></path></g><g transform="translate(190 267)"><path d="M0 -11L11 0L0 11L-11 0Z" fill="#d3d3d3"></path></g><g transform="translate(189 168)"><path d="M0 -11L11 0L0 11L-11 0Z" fill="#d3d3d3"></path></g><g transform="translate(284 455)"><path d="M0 -12L12 0L0 12L-12 0Z" fill="#d3d3d3"></path></g><g transform="translate(462 591)"><path d="M0 -11L11 0L0 11L-11 0Z" fill="#d3d3d3"></path></g><g transform="translate(848 181)"><path d="M0 -11L11 0L0 11L-11 0Z" fill="#d3d3d3"></path></g><g transform="translate(236 489)"><path d="M0 -9L9 0L0 9L-9 0Z" fill="#d3d3d3"></path></g><g transform="translate(93 380)"><path d="M0 -12L12 0L0 12L-12 0Z" fill="#d3d3d3"></path></g><g transform="translate(280 500)"><path d="M0 -11L11 0L0 11L-11 0Z" fill="#d3d3d3"></path></g><g transform="translate(625 196)"><path d="M0 -10L10 0L0 10L-10 0Z" fill="#d3d3d3"></path></g><g transform="translate(123 183)"><path d="M0 -9L9 0L0 9L-9 0Z" fill="#d3d3d3"></path></g><g transform="translate(416 407)"><path d="M0 -10L10 0L0 10L-10 0Z" fill="#d3d3d3"></path></g><g transform="translate(73 143)"><path d="M0 -12L12 0L0 12L-12 0Z" fill="#d3d3d3"></path></g><g transform="translate(53 86)"><path d="M0 -12L12 0L0 12L-12 0Z" fill="#d3d3d3"></path></g><g transform="translate(768 425)"><path d="M0 -10L10 0L0 10L-10 0Z" fill="#d3d3d3"></path></g><g transform="translate(206 239)"><path d="M0 -11L11 0L0 11L-11 0Z" fill="#d3d3d3"></path></g><g transform="translate(883 27)"><path d="M0 -9L9 0L0 9L-9 0Z" fill="#d3d3d3"></path></g><g transform="translate(603 150)"><path d="M0 -9L9 0L0 9L-9 0Z" fill="#d3d3d3"></path></g><g transform="translate(467 459)"><path d="M0 -9L9 0L0 9L-9 0Z" fill="#d3d3d3"></path></g><g transform="translate(655 40)"><path d="M0 -12L12 0L0 12L-12 0Z" fill="#d3d3d3"></path></g><g transform="translate(618 344)"><path d="M0 -11L11 0L0 11L-11 0Z" fill="#d3d3d3"></path></g><g transform="translate(488 120)"><path d="M0 -12L12 0L0 12L-12 0Z" fill="#d3d3d3"></path></g><g transform="translate(321 137)"><path d="M0 -12L12 0L0 12L-12 0Z" fill="#d3d3d3"></path></g><g transform="translate(883 235)"><path d="M0 -9L9 0L0 9L-9 0Z" fill="#d3d3d3"></path></g><g transform="translate(725 228)"><path d="M0 -12L12 0L0 12L-12 0Z" fill="#d3d3d3"></path></g><g transform="translate(694 591)"><path d="M0 -9L9 0L0 9L-9 0Z" fill="#d3d3d3"></path></g><g transform="translate(46 201)"><path d="M0 -10L10 0L0 10L-10 0Z" fill="#d3d3d3"></path></g><g transform="translate(898 494)"><path d="M0 -11L11 0L0 11L-11 0Z" fill="#d3d3d3"></path></g><g transform="translate(152 160)"><path d="M0 -10L10 0L0 10L-10 0Z" fill="#d3d3d3"></path></g><g transform="translate(199 136)"><path d="M0 -10L10 0L0 10L-10 0Z" fill="#d3d3d3"></path></g><g transform="translate(288 3)"><path d="M0 -11L11 0L0 11L-11 0Z" fill="#d3d3d3"></path></g><g transform="translate(282 64)"><path d="M0 -12L12 0L0 12L-12 0Z" fill="#d3d3d3"></path></g><g transform="translate(525 3)"><path d="M0 -12L12 0L0 12L-12 0Z" fill="#d3d3d3"></path></g><g transform="translate(432 85)"><path d="M0 -11L11 0L0 11L-11 0Z" fill="#d3d3d3"></path></g><g transform="translate(202 426)"><path d="M0 -12L12 0L0 12L-12 0Z" fill="#d3d3d3"></path></g><g transform="translate(549 220)"><path d="M0 -9L9 0L0 9L-9 0Z" fill="#d3d3d3"></path></g><g transform="translate(566 21)"><path d="M0 -11L11 0L0 11L-11 0Z" fill="#d3d3d3"></path></g><g transform="translate(79 29)"><path d="M0 -12L12 0L0 12L-12 0Z" fill="#d3d3d3"></path></g><g transform="translate(431 533)"><path d="M0 -10L10 0L0 10L-10 0Z" fill="#d3d3d3"></path></g><g transform="translate(674 563)"><path d="M0 -9L9 0L0 9L-9 0Z" fill="#d3d3d3"></path></g><g transform="translate(235 297)"><path d="M0 -9L9 0L0 9L-9 0Z" fill="#d3d3d3"></path></g><g transform="translate(359 508)"><path d="M0 -10L10 0L0 10L-10 0Z" fill="#d3d3d3"></path></g><g transform="translate(302 34)"><path d="M0 -11L11 0L0 11L-11 0Z" fill="#d3d3d3"></path></g><g transform="translate(145 51)"><path d="M0 -9L9 0L0 9L-9 0Z" fill="#d3d3d3"></path></g><g transform="translate(561 323)"><path d="M0 -11L11 0L0 11L-11 0Z" fill="#d3d3d3"></path></g><g transform="translate(780 286)"><path d="M0 -11L11 0L0 11L-11 0Z" fill="#d3d3d3"></path></g><g transform="translate(39 465)"><path d="M0 -12L12 0L0 12L-12 0Z" fill="#d3d3d3"></path></g><g transform="translate(542 355)"><path d="M0 -12L12 0L0 12L-12 0Z" fill="#d3d3d3"></path></g><g transform="translate(37 354)"><path d="M0 -10L10 0L0 10L-10 0Z" fill="#d3d3d3"></path></g><g transform="translate(283 351)"><path d="M0 -11L11 0L0 11L-11 0Z" fill="#d3d3d3"></path></g><g transform="translate(468 392)"><path d="M0 -11L11 0L0 11L-11 0Z" fill="#d3d3d3"></path></g><g transform="translate(484 323)"><path d="M0 -11L11 0L0 11L-11 0Z" fill="#d3d3d3"></path></g><g transform="translate(206 84)"><path d="M0 -11L11 0L0 11L-11 0Z" fill="#d3d3d3"></path></g><g transform="translate(548 587)"><path d="M0 -10L10 0L0 10L-10 0Z" fill="#d3d3d3"></path></g><g transform="translate(789 65)"><path d="M0 -11L11 0L0 11L-11 0Z" fill="#d3d3d3"></path></g><g transform="translate(290 162)"><path d="M0 -12L12 0L0 12L-12 0Z" fill="#d3d3d3"></path></g><g transform="translate(718 308)"><path d="M0 -9L9 0L0 9L-9 0Z" fill="#d3d3d3"></path></g><g transform="translate(586 240)"><path d="M0 -10L10 0L0 10L-10 0Z" fill="#d3d3d3"></path></g><g transform="translate(719 356)"><path d="M0 -12L12 0L0 12L-12 0Z" fill="#d3d3d3"></path></g><g transform="translate(226 139)"><path d="M0 -11L11 0L0 11L-11 0Z" fill="#d3d3d3"></path></g><g transform="translate(469 549)"><path d="M0 -12L12 0L0 12L-12 0Z" fill="#d3d3d3"></path></g><g transform="translate(202 321)"><path d="M0 -12L12 0L0 12L-12 0Z" fill="#d3d3d3"></path></g><g transform="translate(558 275)"><path d="M0 -12L12 0L0 12L-12 0Z" fill="#d3d3d3"></path></g><g transform="translate(692 228)"><path d="M0 -12L12 0L0 12L-12 0Z" fill="#d3d3d3"></path></g><g transform="translate(232 39)"><path d="M0 -9L9 0L0 9L-9 0Z" fill="#d3d3d3"></path></g><g transform="translate(589 102)"><path d="M0 -9L9 0L0 9L-9 0Z" fill="#d3d3d3"></path></g><g transform="translate(223 346)"><path d="M0 -9L9 0L0 9L-9 0Z" fill="#d3d3d3"></path></g><g transform="translate(700 336)"><path d="M0 -12L12 0L0 12L-12 0Z" fill="#d3d3d3"></path></g><g transform="translate(14 402)"><path d="M0 -11L11 0L0 11L-11 0Z" fill="#d3d3d3"></path></g><g transform="translate(184 222)"><path d="M0 -9L9 0L0 9L-9 0Z" fill="#d3d3d3"></path></g><g transform="translate(604 263)"><path d="M0 -12L12 0L0 12L-12 0Z" fill="#d3d3d3"></path></g><g transform="translate(754 369)"><path d="M0 -9L9 0L0 9L-9 0Z" fill="#d3d3d3"></path></g><g transform="translate(886 269)"><path d="M0 -12L12 0L0 12L-12 0Z" fill="#d3d3d3"></path></g><g transform="translate(746 249)"><path d="M0 -10L10 0L0 10L-10 0Z" fill="#d3d3d3"></path></g><g transform="translate(243 597)"><path d="M0 -12L12 0L0 12L-12 0Z" fill="#d3d3d3"></path></g><g transform="translate(274 558)"><path d="M0 -10L10 0L0 10L-10 0Z" fill="#d3d3d3"></path></g><g transform="translate(741 568)"><path d="M0 -11L11 0L0 11L-11 0Z" fill="#d3d3d3"></path></g><g transform="translate(803 227)"><path d="M0 -11L11 0L0 11L-11 0Z" fill="#d3d3d3"></path></g><g transform="translate(896 417)"><path d="M0 -10L10 0L0 10L-10 0Z" fill="#d3d3d3"></path></g><g transform="translate(486 373)"><path d="M0 -12L12 0L0 12L-12 0Z" fill="#d3d3d3"></path></g><g transform="translate(518 278)"><path d="M0 -12L12 0L0 12L-12 0Z" fill="#d3d3d3"></path></g><g transform="translate(897 322)"><path d="M0 -12L12 0L0 12L-12 0Z" fill="#d3d3d3"></path></g><g transform="translate(174 428)"><path d="M0 -9L9 0L0 9L-9 0Z" fill="#d3d3d3"></path></g><g transform="translate(69 313)"><path d="M0 -12L12 0L0 12L-12 0Z" fill="#d3d3d3"></path></g><g transform="translate(71 344)"><path d="M0 -11L11 0L0 11L-11 0Z" fill="#d3d3d3"></path></g><g transform="translate(626 519)"><path d="M0 -12L12 0L0 12L-12 0Z" fill="#d3d3d3"></path></g><g transform="translate(846 422)"><path d="M0 -9L9 0L0 9L-9 0Z" fill="#d3d3d3"></path></g><g transform="translate(307 91)"><path d="M0 -12L12 0L0 12L-12 0Z" fill="#d3d3d3"></path></g><g transform="translate(19 151)"><path d="M0 -12L12 0L0 12L-12 0Z" fill="#d3d3d3"></path></g><g transform="translate(571 415)"><path d="M0 -12L12 0L0 12L-12 0Z" fill="#d3d3d3"></path></g><g transform="translate(685 484)"><path d="M0 -10L10 0L0 10L-10 0Z" fill="#d3d3d3"></path></g><g transform="translate(420 2)"><path d="M0 -12L12 0L0 12L-12 0Z" fill="#d3d3d3"></path></g><g transform="translate(170 196)"><path d="M0 -9L9 0L0 9L-9 0Z" fill="#d3d3d3"></path></g><g transform="translate(781 207)"><path d="M0 -12L12 0L0 12L-12 0Z" fill="#d3d3d3"></path></g><g transform="translate(124 461)"><path d="M0 -9L9 0L0 9L-9 0Z" fill="#d3d3d3"></path></g><g transform="translate(368 69)"><path d="M0 -11L11 0L0 11L-11 0Z" fill="#d3d3d3"></path></g><g transform="translate(421 164)"><path d="M0 -11L11 0L0 11L-11 0Z" fill="#d3d3d3"></path></g><g transform="translate(247 231)"><path d="M0 -9L9 0L0 9L-9 0Z" fill="#d3d3d3"></path></g><g transform="translate(430 577)"><path d="M0 -12L12 0L0 12L-12 0Z" fill="#d3d3d3"></path></g><g transform="translate(540 45)"><path d="M0 -10L10 0L0 10L-10 0Z" fill="#d3d3d3"></path></g><g transform="translate(518 184)"><path d="M0 -12L12 0L0 12L-12 0Z" fill="#d3d3d3"></path></g><g transform="translate(461 198)"><path d="M0 -11L11 0L0 11L-11 0Z" fill="#d3d3d3"></path></g><g transform="translate(877 477)"><path d="M0 -9L9 0L0 9L-9 0Z" fill="#d3d3d3"></path></g><g transform="translate(1 453)"><path d="M0 -10L10 0L0 10L-10 0Z" fill="#d3d3d3"></path></g><g transform="translate(304 245)"><path d="M0 -9L9 0L0 9L-9 0Z" fill="#d3d3d3"></path></g><g transform="translate(361 375)"><path d="M0 -9L9 0L0 9L-9 0Z" fill="#d3d3d3"></path></g><g transform="translate(17 6)"><path d="M0 -11L11 0L0 11L-11 0Z" fill="#d3d3d3"></path></g><g transform="translate(745 492)"><path d="M0 -9L9 0L0 9L-9 0Z" fill="#d3d3d3"></path></g><g transform="translate(498 523)"><path d="M0 -11L11 0L0 11L-11 0Z" fill="#d3d3d3"></path></g><g transform="translate(98 291)"><path d="M0 -9L9 0L0 9L-9 0Z" fill="#d3d3d3"></path></g><g transform="translate(786 541)"><path d="M0 -9L9 0L0 9L-9 0Z" fill="#d3d3d3"></path></g><g transform="translate(349 109)"><path d="M0 -11L11 0L0 11L-11 0Z" fill="#d3d3d3"></path></g><g transform="translate(472 227)"><path d="M0 -10L10 0L0 10L-10 0Z" fill="#d3d3d3"></path></g><g transform="translate(357 318)"><path d="M0 -11L11 0L0 11L-11 0Z" fill="#d3d3d3"></path></g><g transform="translate(181 385)"><path d="M0 -12L12 0L0 12L-12 0Z" fill="#d3d3d3"></path></g><g transform="translate(626 134)"><path d="M0 -12L12 0L0 12L-12 0Z" fill="#d3d3d3"></path></g><g transform="translate(14 179)"><path d="M0 -9L9 0L0 9L-9 0Z" fill="#d3d3d3"></path></g><g transform="translate(67 181)"><path d="M0 -10L10 0L0 10L-10 0Z" fill="#d3d3d3"></path></g><g transform="translate(50 32)"><path d="M0 -12L12 0L0 12L-12 0Z" fill="#d3d3d3"></path></g><g transform="translate(516 482)"><path d="M0 -11L11 0L0 11L-11 0Z" fill="#d3d3d3"></path></g><g transform="translate(546 73)"><path d="M0 -9L9 0L0 9L-9 0Z" fill="#d3d3d3"></path></g><g transform="translate(107 441)"><path d="M0 -12L12 0L0 12L-12 0Z" fill="#d3d3d3"></path></g><g transform="translate(324 198)"><path d="M0 -10L10 0L0 10L-10 0Z" fill="#d3d3d3"></path></g><g transform="translate(852 572)"><path d="M0 -12L12 0L0 12L-12 0Z" fill="#d3d3d3"></path></g><g transform="translate(837 61)"><path d="M0 -9L9 0L0 9L-9 0Z" fill="#d3d3d3"></path></g><g transform="translate(655 93)"><path d="M0 -12L12 0L0 12L-12 0Z" fill="#d3d3d3"></path></g><g transform="translate(232 421)"><path d="M0 -11L11 0L0 11L-11 0Z" fill="#d3d3d3"></path></g><g transform="translate(147 24)"><path d="M0 -12L12 0L0 12L-12 0Z" fill="#d3d3d3"></path></g><g transform="translate(12 108)"><path d="M0 -12L12 0L0 12L-12 0Z" fill="#d3d3d3"></path></g><g transform="translate(628 579)"><path d="M0 -10L10 0L0 10L-10 0Z" fill="#d3d3d3"></path></g><g transform="translate(573 491)"><path d="M0 -9L9 0L0 9L-9 0Z" fill="#d3d3d3"></path></g><g transform="translate(858 13)"><path d="M0 -9L9 0L0 9L-9 0Z" fill="#d3d3d3"></path></g><g transform="translate(385 592)"><path d="M0 -9L9 0L0 9L-9 0Z" fill="#d3d3d3"></path></g><g transform="translate(703 503)"><path d="M0 -10L10 0L0 10L-10 0Z" fill="#d3d3d3"></path></g><g transform="translate(215 278)"><path d="M0 -12L12 0L0 12L-12 0Z" fill="#d3d3d3"></path></g><g transform="translate(652 5)"><path d="M0 -9L9 0L0 9L-9 0Z" fill="#d3d3d3"></path></g><g transform="translate(745 314)"><path d="M0 -12L12 0L0 12L-12 0Z" fill="#d3d3d3"></path></g><g transform="translate(853 514)"><path d="M0 -12L12 0L0 12L-12 0Z" fill="#d3d3d3"></path></g><g transform="translate(805 114)"><path d="M0 -11L11 0L0 11L-11 0Z" fill="#d3d3d3"></path></g><g transform="translate(258 316)"><path d="M0 -12L12 0L0 12L-12 0Z" fill="#d3d3d3"></path></g><g transform="translate(867 595)"><path d="M0 -12L12 0L0 12L-12 0Z" fill="#d3d3d3"></path></g><g transform="translate(48 126)"><path d="M0 -9L9 0L0 9L-9 0Z" fill="#d3d3d3"></path></g><g transform="translate(502 68)"><path d="M0 -12L12 0L0 12L-12 0Z" fill="#d3d3d3"></path></g><g transform="translate(778 477)"><path d="M0 -10L10 0L0 10L-10 0Z" fill="#d3d3d3"></path></g></g></svg>